# File created by Blade
# Date/Time:  Wed Apr 08 17:00:17 2015
# Frame Rate: 120.000 fps
#------------------------------------------------------
:FULLY-SPECIFIED
:DEGREES
2081
root 1.327268 35.693361 2.923685 -28.770460 -79.943969 16.517372
Spine 8.837590 2.873309 -8.926453
Head 3.846688 7.492885 1.817177
LeftShoulder 2.151128 -0.077277 25.938812
LeftArm 93.613958 41.921821 -33.790343
LeftForeArm -25.471864 -0.000000 91.355835
LeftHand -23.188414 -0.000000 -4.791773
LeftHandThumb1 -26.253704 0.000000 33.147579
RightShoulder -8.358835 -36.843668 -13.096487
RightArm 98.479675 24.139761 73.878615
RightForeArm 46.244994 -0.000000 129.081622
RightHand 3.128518 -0.000000 26.936614
RightHandThumb1 -24.326973 -0.000000 -32.862282
LeftUpLeg 14.192524 7.264865 5.482367
LeftLeg 11.309058 -0.000000 -0.000000
LeftFoot -14.199175 -2.281547 -12.203257
LeftToeBase 10.757042 -0.000000 -0.000000
RightUpLeg 22.765827 -17.254518 -17.649489
RightLeg 1.585808 -0.000000 -0.000000
RightFoot -11.335063 6.216211 20.637312
RightToeBase 14.883731 -0.000000 -0.000000
2082
root 1.326425 35.696051 2.919703 -28.869192 -80.040048 16.626338
Spine 8.802187 2.776089 -8.902089
Head 3.910448 7.464301 1.798311
LeftShoulder 1.964079 0.060200 25.885043
LeftArm 93.148246 41.726061 -33.982287
LeftForeArm -24.369315 -0.000000 91.597934
LeftHand -22.753134 -0.000000 -5.371964
LeftHandThumb1 -26.253704 0.000000 33.147579
RightShoulder -8.634331 -36.922082 -12.897619
RightArm 98.387935 24.330384 74.413712
RightForeArm 46.671281 -0.000000 129.013019
RightHand 3.239330 -0.000000 26.577092
RightHandThumb1 -24.326973 -0.000000 -32.862282
LeftUpLeg 14.222394 7.349925 5.518267
LeftLeg 11.268639 -0.000000 -0.000000
LeftFoot -14.174428 -2.277589 -12.220396
LeftToeBase 10.769239 -0.000000 -0.000000
RightUpLeg 22.732658 -17.225081 -17.619790
RightLeg 1.565739 -0.000000 -0.000000
RightFoot -11.286610 6.233653 20.588273
RightToeBase 14.843813 -0.000000 -0.000000
2083
root 1.324510 35.697843 2.914662 -28.935376 -80.147402 16.695702
Spine 8.771969 2.703627 -8.869985
Head 3.979933 7.427686 1.799711
LeftShoulder 1.817245 0.145664 25.865162
LeftArm 92.605065 41.532963 -34.185496
LeftForeArm -23.339582 -0.000000 91.952773
LeftHand -22.321284 0.000000 -6.020543
LeftHandThumb1 -26.253704 0.000000 33.147579
RightShoulder -8.928657 -37.031447 -12.667076
RightArm 98.316556 24.544977 74.961565
RightForeArm 47.109827 -0.000000 128.942391
RightHand 3.416143 -0.000000 26.364723
RightHandThumb1 -24.326973 -0.000000 -32.862282
LeftUpLeg 14.269061 7.395817 5.548938
LeftLeg 11.212496 -0.000000 -0.000000
LeftFoot -14.171919 -2.207735 -12.220079
LeftToeBase 10.770273 -0.000000 -0.000000
RightUpLeg 22.714132 -17.216835 -17.592299
RightLeg 1.534956 -0.000000 -0.000000
RightFoot -11.236462 6.285596 20.530652
RightToeBase 14.894437 -0.000000 -0.000000
2084
root 1.323857 35.699796 2.909655 -29.086170 -80.260987 16.849730
Spine 8.742244 2.637088 -8.845715
Head 4.043384 7.427075 1.792829
LeftShoulder 1.643117 0.276860 25.802408
LeftArm 92.124121 41.304540 -34.316668
LeftForeArm -22.069418 0.000000 92.303689
LeftHand -21.898612 -0.000000 -6.232033
LeftHandThumb1 -26.253704 0.000000 33.147579
RightShoulder -9.216352 -37.132043 -12.447799
RightArm 98.232220 24.741514 75.504864
RightForeArm 47.620527 -0.000000 128.861696
RightHand 3.315969 -0.000000 26.123071
RightHandThumb1 -24.326973 -0.000000 -32.862282
LeftUpLeg 14.308133 7.485324 5.581141
LeftLeg 11.175908 -0.000000 -0.000000
LeftFoot -14.156528 -2.165883 -12.213850
LeftToeBase 10.758642 -0.000000 -0.000000
RightUpLeg 22.688244 -17.184496 -17.565585
RightLeg 1.505427 -0.000000 -0.000000
RightFoot -11.186617 6.334008 20.521082
RightToeBase 14.865387 -0.000000 -0.000000
2085
root 1.322377 35.701452 2.904725 -29.205132 -80.372419 16.974287
Spine 8.712202 2.573271 -8.817810
Head 4.106270 7.401469 1.801473
LeftShoulder 1.479329 0.356542 25.754767
LeftArm 91.628925 41.119635 -34.430477
LeftForeArm -20.661029 -0.000000 92.688412
LeftHand -21.363121 -0.000000 -6.335594
LeftHandThumb1 -26.253704 0.000000 33.147579
RightShoulder -9.518919 -37.243431 -12.210003
RightArm 98.170648 24.946752 76.086602
RightForeArm 48.064750 -0.000000 128.774337
RightHand 3.397333 -0.000000 25.988181
RightHandThumb1 -24.326973 -0.000000 -32.862282
LeftUpLeg 14.349606 7.555580 5.609761
LeftLeg 11.126701 -0.000000 -0.000000
LeftFoot -14.147622 -2.102480 -12.216227
LeftToeBase 10.760422 -0.000000 -0.000000
RightUpLeg 22.668011 -17.158645 -17.536540
RightLeg 1.464703 -0.000000 -0.000000
RightFoot -11.139151 6.377271 20.470240
RightToeBase 14.884707 -0.000000 -0.000000
2086
root 1.322398 35.703218 2.900273 -29.376902 -80.498939 17.160011
Spine 8.679770 2.529308 -8.790814
Head 4.151320 7.349248 1.805114
LeftShoulder 1.293914 0.420388 25.740035
LeftArm 91.020161 40.911792 -34.666987
LeftForeArm -19.715023 0.000000 93.116928
LeftHand -20.874719 -0.000000 -6.387446
LeftHandThumb1 -26.253704 0.000000 33.147579
RightShoulder -9.876125 -37.396929 -11.947230
RightArm 98.128920 25.050284 76.685207
RightForeArm 48.522866 -0.000000 128.680855
RightHand 3.730583 -0.000000 25.644617
RightHandThumb1 -24.326973 -0.000000 -32.862282
LeftUpLeg 14.382353 7.624298 5.631113
LeftLeg 11.084198 -0.000000 -0.000000
LeftFoot -14.141674 -2.031638 -12.218770
LeftToeBase 10.754214 -0.000000 -0.000000
RightUpLeg 22.623076 -17.126921 -17.509473
RightLeg 1.443225 -0.000000 -0.000000
RightFoot -11.098103 6.447196 20.471196
RightToeBase 14.930873 -0.000000 -0.000000
2087
root 1.321771 35.704360 2.895801 -29.549584 -80.632052 17.336079
Spine 8.658068 2.488689 -8.746447
Head 4.186697 7.296288 1.784057
LeftShoulder 1.108179 0.504032 25.691277
LeftArm 90.374622 40.707584 -34.942779
LeftForeArm -18.802653 0.000000 93.552037
LeftHand -20.313772 -0.000000 -6.241198
LeftHandThumb1 -26.253704 0.000000 33.147579
RightShoulder -10.239946 -37.571807 -11.683828
RightArm 98.085718 25.193124 77.247043
RightForeArm 49.022125 -0.000000 128.565697
RightHand 4.047270 -0.000000 25.628894
RightHandThumb1 -24.326973 -0.000000 -32.862282
LeftUpLeg 14.422839 7.735964 5.672804
LeftLeg 11.052146 -0.000000 -0.000000
LeftFoot -14.139845 -1.986974 -12.183634
LeftToeBase 10.752714 -0.000000 -0.000000
RightUpLeg 22.584456 -17.059784 -17.466615
RightLeg 1.421033 -0.000000 -0.000000
RightFoot -11.072151 6.485575 20.456168
RightToeBase 14.990235 -0.000000 -0.000000
